<?xml version="1.0" ?><!DOCTYPE svg  PUBLIC '-//W3C//DTD SVG 1.1//EN'  'http://www.w3.org/Graphics/SVG/1.1/DTD/svg11.dtd'><svg enable-background="new 0 0 32 32" version="1.1" viewBox="0 0 32 32" xml:space="preserve" xmlns="http://www.w3.org/2000/svg" xmlns:xlink="http://www.w3.org/1999/xlink"><g id="Packaging_Delivery31"><g><path d="M18,6v13c0,0.55-0.45,1-1,1H5c-0.55,0-1-0.45-1-1V6c0-0.55,0.45-1,1-1h12C17.55,5,18,5.45,18,6z" fill="#48B1DD"/></g><path d="M14.5879,10.373l-3-2.1816c-0.0394-0.0289-0.085-0.0426-0.1273-0.0649   c-0.0366-0.0194-0.0698-0.0408-0.1089-0.0556c-0.2277-0.0864-0.4758-0.0864-0.7034,0.0001   c-0.0391,0.0148-0.0721,0.0361-0.1087,0.0555c-0.0424,0.0224-0.088,0.0361-0.1274,0.065l-3,2.1816   c-0.4473,0.3242-0.5459,0.9502-0.2207,1.3965c0.3242,0.4473,0.9502,0.5449,1.3965,0.2207L10,10.9634V15c0,0.5527,0.4473,1,1,1   s1-0.4473,1-1v-4.0366l1.4121,1.0268c0.1777,0.1289,0.3828,0.1914,0.5869,0.1914c0.3096,0,0.6143-0.1426,0.8096-0.4121   C15.1338,11.3232,15.0352,10.6973,14.5879,10.373z" fill="#4391B2"/><g><g><path d="M21,19v5c0,0.55-0.45,1-1,1H2c-0.55,0-1-0.45-1-1v-5c0-0.55,0.45-1,1-1h18C20.55,18,21,18.45,21,19z" fill="#96CEE5"/></g><g><g><path d="M31,17v7c0,0.55-0.45,1-1,1H19V12c0-0.55,0.45-1,1-1h6c0.3,0,0.59,0.14,0.78,0.38l4,4.99      c0.05,0.07,0.1,0.15,0.14,0.23c0,0.01,0,0.01,0,0.01s0,0,0,0.01C30.98,16.74,31,16.87,31,17z" fill="#48B1DD"/></g></g><g><path d="M31,17v0.01L25,17v-6h1c0.3,0,0.59,0.14,0.78,0.38l4,4.99c0.05,0.07,0.1,0.15,0.14,0.23     c0,0.01,0,0.01,0,0.01s0,0,0,0.01C30.98,16.74,31,16.87,31,17z" fill="#96CEE5"/></g><g><path d="M28,24c0,1.65-1.35,3-3,3s-3-1.35-3-3c0-1.65,1.35-3,3-3S28,22.35,28,24z" fill="#4391B2"/></g><g><path d="M11,24c0,1.65-1.35,3-3,3s-3-1.35-3-3c0-1.65,1.35-3,3-3S11,22.35,11,24z" fill="#4391B2"/></g></g></g><g id="Packaging_Delivery30"/><g id="Packaging_Delivery29"/><g id="Packaging_Delivery28"/><g id="Packaging_Delivery27"/><g id="Packaging_Delivery26"/><g id="Packaging_Delivery25"/><g id="Packaging_Delivery24"/><g id="Packaging_Delivery23"/><g id="Packaging_Delivery22"/><g id="Packaging_Delivery21"/><g id="Packaging_Delivery20"/><g id="Packaging_Delivery19"/><g id="Packaging_Delivery18"/><g id="Packaging_Delivery17"/><g id="Packaging_Delivery16"/><g id="Packaging_Delivery15"/><g id="Packaging_Delivery14"/><g id="Packaging_Delivery13"/><g id="Packaging_Delivery12"/><g id="Packaging_Delivery11"/><g id="Packaging_Delivery10"/><g id="Packaging_Delivery09"/><g id="Packaging_Delivery08"/><g id="Packaging_Delivery07"/><g id="Packaging_Delivery06"/><g id="Packaging_Delivery05"/><g id="Packaging_Delivery04"/><g id="Packaging_Delivery03"/><g id="Packaging_Delivery02"/><g id="Packaging_Delivery01"/></svg>